<svg id="Layer_1" data-name="Layer 1" xmlns="http://www.w3.org/2000/svg" xmlns:xlink="http://www.w3.org/1999/xlink" viewBox="0 0 1080 1080"><defs><style>.cls-1{fill:url(#linear-gradient);}.cls-2{fill:#fff;}</style><linearGradient id="linear-gradient" x1="97.45" y1="97.45" x2="982.55" y2="982.55" gradientUnits="userSpaceOnUse"><stop offset="0" stop-color="#a4acf8"/><stop offset="1" stop-color="#818cf8"/></linearGradient></defs><title>samiptter_logo2</title><rect class="cls-1" x="15.4" y="15.4" width="1049.2" height="1049.2" rx="280.13"/><path class="cls-2" d="M437.06,298.84l56.2,56.21L358.9,489.41a224.72,224.72,0,0,0-65.72,166.46L186.61,549.29c-63.12-63-63.12-165.63,0-228.69l21.69-21.76a148.66,148.66,0,0,1,15.1-13.26q5-4,10.28-7.42A152.69,152.69,0,0,1,247.44,270a157.53,157.53,0,0,1,14.34-6.66c2.41-.95,4.89-1.9,7.36-2.79a152,152,0,0,1,18.21-5.14c.95-.25,1.9-.44,2.85-.63a162.21,162.21,0,0,1,65,0c.95.19,1.9.38,2.86.63a152.4,152.4,0,0,1,18.2,5.14c2.48.89,4.95,1.84,7.36,2.79A156.29,156.29,0,0,1,397.92,270a152.69,152.69,0,0,1,13.76,8.12q5.24,3.42,10.28,7.42A147.59,147.59,0,0,1,437.06,298.84Z"/><path class="cls-2" d="M723.54,652.32a159.84,159.84,0,0,1-28.8,92l-40.47,40.47c-63.06,63.06-165.7,63.06-228.76,0L403.75,763c-63.05-63.06-63.05-165.64,0-228.76L538.12,399.9l138,138A160.82,160.82,0,0,1,723.54,652.32Z"/><path class="cls-2" d="M403.75,534.26,538.12,399.9l138,138A161.55,161.55,0,0,1,694.74,744.3l-40.47,40.47c-63.06,63.06-165.7,63.06-228.76,0L403.75,763C340.7,700,340.7,597.38,403.75,534.26Z"/><path class="cls-2" d="M940.69,431.3a160.78,160.78,0,0,1-47.32,114.38L787,652.06a223.61,223.61,0,0,0-66-159l-138-138,59.88-59.82c63.06-63.06,165.7-63.06,228.76,0l21.76,21.69A160.88,160.88,0,0,1,940.69,431.3Z"/></svg>