<svg width="610" height="433" viewBox="0 0 610 433" fill="none" xmlns="http://www.w3.org/2000/svg">
<path d="M298.839 222.722C293.105 223.454 288.53 231.506 287.676 238.155C287.432 240.107 287.31 241.998 287.31 243.95C287.31 250.294 288.652 256.333 291.092 262.494C293.532 268.533 297.192 274.694 301.584 278.232C306.037 274.694 309.636 268.533 312.076 262.494C314.516 256.333 315.858 250.294 315.858 243.95C315.858 241.998 315.736 240.107 315.492 238.155C314.638 231.445 310.063 223.454 304.329 222.722C302.56 222.539 300.669 222.539 298.839 222.722Z" stroke="#601B23" stroke-width="6" stroke-miterlimit="10" stroke-linecap="round" stroke-linejoin="round"/>
<path d="M298.839 222.722C293.105 223.454 288.53 231.506 287.676 238.155C287.432 240.107 287.31 241.998 287.31 243.95C287.31 250.294 288.652 256.333 291.092 262.494C293.532 268.533 297.192 274.694 301.584 278.232C306.037 274.694 309.636 268.533 312.076 262.494C314.516 256.333 315.858 250.294 315.858 243.95C315.858 241.998 315.736 240.107 315.492 238.155C314.638 231.445 310.063 223.454 304.329 222.722C302.56 222.539 300.669 222.539 298.839 222.722Z" fill="#E36535"/>
<path d="M327.204 260.969C327.204 272.315 324.825 283.173 320.433 294.214C320.311 294.58 320.128 294.946 319.945 295.373C315.553 305.865 309.27 316.357 301.645 322.518C293.776 316.174 287.371 305.255 282.918 294.458C282.857 294.397 282.857 294.336 282.796 294.214C278.404 283.173 276.025 272.315 276.025 260.969C276.025 257.492 276.269 254.076 276.696 250.538C278.16 238.704 286.212 224.43 296.277 222.905C296.399 222.905 296.521 222.844 296.643 222.844C299.815 222.478 303.048 222.478 306.22 222.783C306.342 222.783 306.525 222.783 306.647 222.844C316.895 224.125 325.13 238.582 326.594 250.538C326.96 254.076 327.204 257.492 327.204 260.969Z" fill="#F4A045"/>
<path d="M327.204 260.969C327.204 272.315 324.825 283.173 320.433 294.214C320.311 294.58 320.128 294.946 319.945 295.373C315.553 305.865 309.27 316.357 301.645 322.518C293.776 316.174 287.371 305.255 282.918 294.458C282.857 294.397 282.857 294.336 282.796 294.214C278.404 283.173 276.025 272.315 276.025 260.969C276.025 257.492 276.269 254.076 276.696 250.538C278.16 238.704 286.212 224.43 296.277 222.905C296.399 222.905 296.521 222.844 296.643 222.844C299.815 222.478 303.048 222.478 306.22 222.783C306.342 222.783 306.525 222.783 306.647 222.844C316.895 224.125 325.13 238.582 326.594 250.538C326.96 254.076 327.204 257.492 327.204 260.969Z" stroke="#601B23" stroke-width="6" stroke-miterlimit="10" stroke-linecap="round" stroke-linejoin="round"/>
<path d="M609.878 323.799C600.606 326.544 593.042 333.315 589.26 342.099C581.94 339.476 574.01 338.012 565.775 338.012C541.375 338.012 519.903 350.578 507.459 369.549C500.993 366.499 493.795 364.852 486.17 364.852C482.815 364.852 479.582 365.157 476.471 365.828C476.471 365.523 476.471 365.218 476.471 364.852C476.471 349.297 465.491 336.304 450.912 333.193C445.3 313.978 427.61 299.887 406.565 299.887C389.058 299.887 373.808 309.647 366 323.982C360.571 318.919 353.312 315.747 345.321 315.747C340.746 315.747 336.415 316.784 332.511 318.553C327.753 311.172 323.544 303.425 319.945 295.251C311.039 275.121 306.098 252.673 306.098 229.127C306.098 226.992 306.159 224.918 306.22 222.783C307.257 195.516 314.882 169.957 327.631 147.631H274.866C287.615 169.957 295.24 195.577 296.277 222.844C296.338 224.918 296.399 226.992 296.399 229.066C296.399 252.246 291.58 274.389 282.918 294.397C277.245 307.451 269.986 319.651 261.263 330.692C253.882 321.542 242.597 315.747 229.97 315.747C217.282 315.747 205.997 321.603 198.616 330.753C192.699 327.276 185.867 325.263 178.486 325.263C166.652 325.263 155.977 330.509 148.718 338.744C137.982 322.823 119.804 312.331 99.186 312.331C66.246 312.331 39.528 339.049 39.528 371.989C39.528 372.172 39.528 372.355 39.528 372.538C17.202 383.884 1.525 406.454 0 432.867H143.96H439.139H609.878V323.799Z" fill="white"/>
<path d="M228.018 129.575L208.132 137.322V99.563L269.193 51.922V123.353L254.431 131.1C246.562 126.952 236.985 126.098 228.018 129.575Z" fill="#C11A4D"/>
<path d="M201.666 147.204C195.444 138.176 191.845 127.501 191.845 116.094C191.845 101.637 197.518 88.4 206.973 78.213C216.428 88.4 222.162 101.637 222.223 116.094C222.223 127.562 218.624 138.176 212.463 147.204H201.666Z" fill="#CF264D"/>
<path opacity="0.72" d="M208.132 137.322L227.896 129.636C228.14 124.39 227.774 119.022 226.798 113.654C225.334 105.602 222.589 98.0381 218.807 91.2061L208.132 99.5631V137.322Z" fill="#A5143A"/>
<path opacity="0.23" d="M210.694 110.116L269.254 64.488V51.922L208.132 99.502V137.322L210.694 136.346V110.116Z" fill="#F4A15D"/>
<path opacity="0.72" d="M244.915 127.867C248.27 128.416 251.442 129.514 254.431 131.1L269.193 123.353V51.922L243.451 71.991C242.17 79.738 241.56 87.851 241.56 96.208C241.621 107.249 242.78 117.924 244.915 127.867Z" fill="#A5143A"/>
<path d="M228.018 129.575L208.132 137.322V99.563L269.193 51.922V123.353L254.431 131.1C246.562 126.952 236.985 126.098 228.018 129.575Z" stroke="#601B23" stroke-width="6" stroke-miterlimit="10" stroke-linecap="round" stroke-linejoin="round"/>
<path d="M201.666 147.204C195.444 138.176 191.845 127.501 191.845 116.094C191.845 101.637 197.518 88.4 206.973 78.213C216.428 88.4 222.162 101.637 222.223 116.094C222.223 127.562 218.624 138.176 212.463 147.204H201.666Z" fill="#CF264D"/>
<path opacity="0.23" d="M206.058 78.213C206.79 79.006 207.522 79.86 208.193 80.714C201.849 90.474 198.189 101.942 198.128 114.142C198.128 126.22 199.958 137.505 206.18 147.265H200.568C194.407 138.237 190.808 127.562 190.808 116.155C190.869 101.637 196.603 88.4 206.058 78.213Z" fill="#F4A15D"/>
<path opacity="0.32" d="M206.058 78.213C206.302 78.457 206.546 78.762 206.79 79.067C199.653 89.62 195.566 102.003 195.505 115.301C195.505 126.83 198.616 137.688 204.045 147.265H200.568C194.407 138.237 190.808 127.562 190.808 116.155C190.869 101.637 196.603 88.4 206.058 78.213Z" fill="#F4A15D"/>
<path opacity="0.37" d="M222.223 116.094C222.223 101.637 216.489 88.461 206.973 78.213C206.241 79.006 205.509 79.86 204.838 80.714C211.182 90.474 214.842 101.942 214.903 114.142C214.903 126.22 211.365 137.505 205.143 147.265H212.463C218.624 138.176 222.223 127.501 222.223 116.094Z" fill="#A5143A"/>
<path opacity="0.72" d="M222.223 116.094C222.223 101.637 216.489 88.461 206.973 78.213C206.729 78.457 206.485 78.762 206.241 79.067C213.378 89.62 217.465 102.003 217.526 115.301C217.526 126.83 214.415 137.688 208.986 147.265H212.463C218.624 138.176 222.223 127.501 222.223 116.094Z" fill="#A5143A"/>
<path opacity="0.37" d="M206.973 78.213C206.241 79.006 205.509 79.86 204.838 80.714C211.182 90.474 214.842 101.942 214.903 114.142C214.903 126.22 211.365 137.505 205.143 147.265H212.463C218.624 138.237 222.223 127.562 222.223 116.155C222.162 101.637 216.428 88.4 206.973 78.213Z" fill="#A5143A"/>
<path opacity="0.72" d="M206.973 78.213C206.729 78.457 206.485 78.762 206.241 79.067C213.378 89.62 217.465 102.003 217.526 115.301C217.526 126.83 214.415 137.688 208.986 147.265H212.463C218.624 138.237 222.223 127.562 222.223 116.155C222.162 101.637 216.428 88.4 206.973 78.213Z" fill="#A5143A"/>
<path d="M213.927 89.193C211.67 85.228 208.986 81.568 205.875 78.152C202.764 81.507 200.08 85.228 197.823 89.193H213.927Z" fill="#601B23"/>
<path d="M201.666 147.204C195.444 138.176 191.845 127.501 191.845 116.094C191.845 101.637 197.518 88.4 206.973 78.213C216.428 88.4 222.162 101.637 222.223 116.094C222.223 127.562 218.624 138.176 212.463 147.204H201.666Z" stroke="#601B23" stroke-width="6" stroke-miterlimit="10" stroke-linecap="round" stroke-linejoin="round"/>
<path d="M280.905 194.296C280.905 194.296 273.524 195.882 262.91 206.496C259.067 210.339 253.028 218.147 248.575 224.064C246.745 226.504 242.841 225.284 242.78 222.234L241.316 157.269C241.011 155.439 241.499 153.548 242.658 152.145L258.64 132.259L280.905 194.296Z" fill="#CF264D"/>
<path opacity="0.32" d="M242.658 223.515C246.135 223.027 248.758 220.038 248.819 216.5L249.49 156.11C249.185 154.28 249.673 152.389 250.832 150.986L260.836 138.481L258.579 132.259L242.658 152.084C241.499 153.548 241.011 155.378 241.316 157.208L242.658 223.515Z" fill="#F4A15D"/>
<path opacity="0.72" d="M280.905 194.296L258.64 132.259L249.795 143.3C254.553 161.6 262.056 180.205 272.182 198.749C277.55 195.028 280.905 194.296 280.905 194.296Z" fill="#A5143A"/>
<path d="M280.905 194.296C280.905 194.296 273.524 195.882 262.91 206.496C259.067 210.339 253.028 218.147 248.575 224.064C246.745 226.504 242.841 225.284 242.78 222.234L241.316 157.269C241.011 155.439 241.499 153.548 242.658 152.145L258.64 132.259L280.905 194.296Z" stroke="#601B23" stroke-width="6" stroke-miterlimit="10" stroke-linecap="round" stroke-linejoin="round"/>
<path d="M195.871 139.152H215.94" stroke="#601B23" stroke-width="4" stroke-miterlimit="10" stroke-linecap="round" stroke-linejoin="round"/>
<path d="M201.666 147.204C195.444 138.176 191.845 127.501 191.845 116.094C191.845 101.637 197.518 88.4 206.973 78.213C216.428 88.4 222.162 101.637 222.223 116.094C222.223 127.562 218.624 138.176 212.463 147.204H201.666Z" fill="#CF264D"/>
<path d="M201.666 147.204C195.444 138.176 191.845 127.501 191.845 116.094C191.845 101.637 197.518 88.4 206.973 78.213C216.428 88.4 222.162 101.637 222.223 116.094C222.223 127.562 218.624 138.176 212.463 147.204H201.666Z" fill="#CF264D"/>
<path opacity="0.23" d="M206.058 78.213C206.79 79.006 207.522 79.86 208.193 80.714C201.849 90.474 198.189 101.942 198.128 114.142C198.128 126.22 199.958 137.505 206.18 147.265H200.568C194.407 138.237 190.808 127.562 190.808 116.155C190.869 101.637 196.603 88.4 206.058 78.213Z" fill="#F4A15D"/>
<path opacity="0.32" d="M206.058 78.213C206.302 78.457 206.546 78.762 206.79 79.067C199.653 89.62 195.566 102.003 195.505 115.301C195.505 126.83 198.616 137.688 204.045 147.265H200.568C194.407 138.237 190.808 127.562 190.808 116.155C190.869 101.637 196.603 88.4 206.058 78.213Z" fill="#F4A15D"/>
<path opacity="0.37" d="M222.223 116.094C222.223 101.637 216.489 88.461 206.973 78.213C206.241 79.006 205.509 79.86 204.838 80.714C211.182 90.474 214.842 101.942 214.903 114.142C214.903 126.22 211.365 137.505 205.143 147.265H212.463C218.624 138.176 222.223 127.501 222.223 116.094Z" fill="#A5143A"/>
<path opacity="0.72" d="M222.223 116.094C222.223 101.637 216.489 88.461 206.973 78.213C206.729 78.457 206.485 78.762 206.241 79.067C213.378 89.62 217.465 102.003 217.526 115.301C217.526 126.83 214.415 137.688 208.986 147.265H212.463C218.624 138.176 222.223 127.501 222.223 116.094Z" fill="#A5143A"/>
<path opacity="0.37" d="M206.973 78.213C206.241 79.006 205.509 79.86 204.838 80.714C211.182 90.474 214.842 101.942 214.903 114.142C214.903 126.22 211.365 137.505 205.143 147.265H212.463C218.624 138.237 222.223 127.562 222.223 116.155C222.162 101.637 216.428 88.4 206.973 78.213Z" fill="#A5143A"/>
<path opacity="0.72" d="M206.973 78.213C206.729 78.457 206.485 78.762 206.241 79.067C213.378 89.62 217.465 102.003 217.526 115.301C217.526 126.83 214.415 137.688 208.986 147.265H212.463C218.624 138.237 222.223 127.562 222.223 116.155C222.162 101.637 216.428 88.4 206.973 78.213Z" fill="#A5143A"/>
<path d="M215.025 89.193C212.768 85.228 210.084 81.568 206.973 78.152C203.862 81.507 201.178 85.228 198.921 89.193H215.025Z" fill="#601B23"/>
<path d="M201.666 147.204C195.444 138.176 191.845 127.501 191.845 116.094C191.845 101.637 197.518 88.4 206.973 78.213C216.428 88.4 222.162 101.637 222.223 116.094C222.223 127.562 218.624 138.176 212.463 147.204H201.666Z" stroke="#601B23" stroke-width="6" stroke-miterlimit="10" stroke-linecap="round" stroke-linejoin="round"/>
<path d="M195.871 139.152H215.94" stroke="#601B23" stroke-width="4" stroke-miterlimit="10" stroke-linecap="round" stroke-linejoin="round"/>
<path d="M371.673 129.575L391.559 137.322V99.563L330.498 51.922V123.353L345.26 131.1C353.129 126.952 362.706 126.098 371.673 129.575Z" fill="#C11A4D"/>
<path opacity="0.72" d="M391.559 137.322L371.795 129.636C371.551 124.39 371.917 119.022 372.893 113.654C374.357 105.602 377.102 98.0381 380.884 91.2061L391.559 99.5631V137.322Z" fill="#A5143A"/>
<path opacity="0.23" d="M389.058 110.116L330.498 64.488V51.922L391.559 99.502V137.322L389.058 136.346V110.116Z" fill="#F4A15D"/>
<path opacity="0.72" d="M354.776 127.867C351.421 128.416 348.249 129.514 345.26 131.1L330.498 123.353V51.922L356.24 71.991C357.521 79.738 358.131 87.851 358.131 96.208C358.131 107.249 356.972 117.924 354.776 127.867Z" fill="#A5143A"/>
<path d="M371.673 129.575L391.559 137.322V99.563L330.498 51.922V123.353L345.26 131.1C353.129 126.952 362.706 126.098 371.673 129.575Z" stroke="#601B23" stroke-width="6" stroke-miterlimit="10" stroke-linecap="round" stroke-linejoin="round"/>
<path d="M318.847 194.296C318.847 194.296 326.228 195.882 336.842 206.496C340.685 210.339 346.724 218.147 351.177 224.064C353.007 226.504 356.911 225.284 356.972 222.234L358.436 157.269C358.741 155.439 358.253 153.548 357.094 152.145L341.112 132.259L318.847 194.296Z" fill="#CF264D"/>
<path opacity="0.72" d="M357.033 223.515C353.556 223.027 350.933 220.038 350.872 216.5L350.201 156.11C350.506 154.28 350.018 152.389 348.859 150.986L338.855 138.481L341.112 132.259L357.094 152.145C358.253 153.609 358.741 155.439 358.436 157.269L357.033 223.515Z" fill="#A5143A"/>
<path opacity="0.72" d="M318.847 194.296L341.112 132.259L349.957 143.3C345.199 161.6 337.696 180.205 327.57 198.749C322.202 195.028 318.847 194.296 318.847 194.296Z" fill="#A5143A"/>
<path d="M318.847 194.296C318.847 194.296 326.228 195.882 336.842 206.496C340.685 210.339 346.724 218.147 351.177 224.064C353.007 226.504 356.911 225.284 356.972 222.234L358.436 157.269C358.741 155.439 358.253 153.548 357.094 152.145L341.112 132.259L318.847 194.296Z" stroke="#601B23" stroke-width="6" stroke-miterlimit="10" stroke-linecap="round" stroke-linejoin="round"/>
<path d="M318.542 229.188C319.213 221.929 318.237 215.097 306.037 197.102C304.024 194.235 299.205 194.235 297.192 197.102C284.992 215.158 284.016 221.99 284.687 229.188C284.809 230.103 286.456 231.14 287.493 230.774C294.508 227.175 308.721 227.175 315.736 230.774C316.773 231.14 318.42 230.164 318.542 229.188Z" fill="#4E8280"/>
<g opacity="0.32">
<g opacity="0.32">
<g opacity="0.32">
<path opacity="0.32" d="M290.848 229.188C290.177 221.929 291.153 215.097 303.353 197.102C303.719 196.553 304.207 196.126 304.695 195.821C302.377 194.296 298.839 194.723 297.192 197.102C284.992 215.158 284.016 221.99 284.687 229.188C284.809 230.103 286.456 231.14 287.493 230.774C288.53 230.286 289.689 229.798 290.909 229.432C290.909 229.371 290.848 229.31 290.848 229.188Z" fill="#F4A15D"/>
</g>
<g opacity="0.32">
<path opacity="0.32" d="M304.695 228.212C308.904 228.517 312.869 229.371 315.736 230.774C316.651 231.14 318.115 230.286 318.481 229.432C314.455 228.273 309.453 227.846 304.695 228.212Z" fill="#F4A15D"/>
</g>
</g>
</g>
<path d="M299.327 197.102C299.144 196.858 298.961 196.675 298.778 196.492C301.035 194.235 305.244 194.479 307.074 197.102C319.274 215.158 320.25 221.99 319.579 229.188C319.457 230.103 317.81 231.14 316.773 230.774C315.37 230.042 313.662 229.493 311.832 229.066C312.503 221.868 311.466 215.036 299.327 197.102Z" fill="#37605D"/>
<path d="M318.542 229.188C319.213 221.929 318.237 215.097 306.037 197.102C304.024 194.235 299.205 194.235 297.192 197.102C284.992 215.158 284.016 221.99 284.687 229.188C284.809 230.103 286.456 231.14 287.493 230.774C294.508 227.175 308.721 227.175 315.736 230.774C316.773 231.14 318.42 230.164 318.542 229.188Z" stroke="#601B23" stroke-width="6" stroke-miterlimit="10" stroke-linecap="round" stroke-linejoin="round"/>
<path d="M315.37 207.289C344.101 160.258 354.532 114.081 348.066 75.59C342.454 42.162 324.398 18.067 301.584 3C278.77 18.067 260.714 42.162 255.102 75.59C248.636 114.081 259.128 160.258 287.798 207.289H315.37Z" fill="#CF264D"/>
<path opacity="0.23" d="M276.94 76.261C280.6 46.005 290.116 21.971 302.926 3.97604C302.499 3.67104 302.011 3.36604 301.584 3.06104C278.77 18.128 260.714 42.223 255.102 75.651C248.636 114.142 259.128 160.319 287.798 207.35H293.593C277.672 160.319 272.304 115.118 276.94 76.261Z" fill="#F4A15D"/>
<path opacity="0.37" d="M348.066 75.59C342.515 42.406 324.703 18.433 302.072 3.36597C306.281 10.137 311.649 19.897 316.163 32.28C324.398 54.789 325.313 73.333 325.801 84.984C327.997 137.383 307.928 195.333 303.719 207.35H315.37C344.101 160.258 354.532 114.081 348.066 75.59Z" fill="#A5143A"/>
<path opacity="0.72" d="M348.066 75.59C342.454 42.162 324.398 18.067 301.584 3C300.974 3.366 300.425 3.79302 299.815 4.15902C308.477 10.93 315.065 18.189 320.067 25.143C364.963 87.607 321.897 181.12 315.98 193.503C315.736 185.085 314.638 174.654 311.527 163.003C309.514 155.561 307.074 149.034 304.634 143.483C303.719 164.162 302.804 184.841 301.889 205.52H309.453C309.27 206.13 309.087 206.679 308.843 207.289H315.248C344.101 160.258 354.532 114.081 348.066 75.59Z" fill="#A5143A"/>
<path opacity="0.32" d="M262.788 86.2041C263.642 76.4441 266.814 44.7241 286.395 18.6771C289.506 14.5901 294.142 9.0391 293.776 8.7341C293.227 8.2461 282.491 17.9451 274.866 28.2541C265.289 41.1251 258.274 56.9241 255.163 75.5901C248.697 114.081 259.189 160.258 287.859 207.289H290.36C282.491 191.612 277.306 177.46 273.768 166.297C271.45 158.794 267.363 145.496 264.801 127.684C263.154 115.728 261.324 102.918 262.788 86.2041Z" fill="#F4A15D"/>
<path opacity="0.72" d="M304.878 98.77C314.042 98.77 321.47 91.3415 321.47 82.178C321.47 73.0145 314.042 65.586 304.878 65.586C295.715 65.586 288.286 73.0145 288.286 82.178C288.286 91.3415 295.715 98.77 304.878 98.77Z" fill="#A5143A" stroke="#A5143A" stroke-width="6" stroke-miterlimit="10" stroke-linecap="round" stroke-linejoin="round"/>
<path d="M315.37 207.289C344.101 160.258 354.532 114.081 348.066 75.59C342.454 42.162 324.398 18.067 301.584 3C278.77 18.067 260.714 42.162 255.102 75.59C248.636 114.081 259.128 160.258 287.798 207.289H315.37Z" stroke="#601B23" stroke-width="6" stroke-miterlimit="10" stroke-linecap="round" stroke-linejoin="round"/>
<path d="M301.584 96.2081C310.748 96.2081 318.176 88.7796 318.176 79.616C318.176 70.4525 310.748 63.024 301.584 63.024C292.421 63.024 284.992 70.4525 284.992 79.616C284.992 88.7796 292.421 96.2081 301.584 96.2081Z" fill="#ABCFD8"/>
<path opacity="0.93" d="M299.327 88.705C304.852 88.705 309.331 84.2261 309.331 78.701C309.331 73.176 304.852 68.697 299.327 68.697C293.802 68.697 289.323 73.176 289.323 78.701C289.323 84.2261 293.802 88.705 299.327 88.705Z" fill="#E2F0F2"/>
<path d="M301.584 96.2081C310.748 96.2081 318.176 88.7796 318.176 79.616C318.176 70.4525 310.748 63.024 301.584 63.024C292.421 63.024 284.992 70.4525 284.992 79.616C284.992 88.7796 292.421 96.2081 301.584 96.2081Z" stroke="#601B23" stroke-width="6" stroke-miterlimit="10" stroke-linecap="round" stroke-linejoin="round"/>
<path d="M278.16 24.045C293.349 18.799 310.002 18.799 325.191 24.106C318.298 15.749 310.307 8.734 301.645 3C292.983 8.734 284.992 15.749 278.16 24.045Z" fill="#601B23"/>
<path d="M278.16 24.045C293.349 18.799 310.002 18.799 325.191 24.106C318.298 15.749 310.307 8.734 301.645 3C292.983 8.734 284.992 15.749 278.16 24.045Z" stroke="#601B23" stroke-width="6" stroke-miterlimit="10" stroke-linecap="round" stroke-linejoin="round"/>
<path d="M301.584 235.837C302.255 235.837 302.804 235.105 302.865 234.129L307.44 159.465C307.928 151.779 305.488 144.642 301.889 142.934C301.645 142.812 301.401 142.812 301.218 142.934C297.619 144.581 295.179 151.718 295.667 159.465L300.242 234.129C300.364 235.105 300.974 235.837 301.584 235.837Z" fill="#BC1D4E"/>
<path opacity="0.74" d="M301.584 235.837C302.255 235.837 302.804 235.105 302.865 234.129L307.44 159.465C307.928 151.779 305.488 144.642 301.889 142.934C301.645 142.812 301.401 142.812 301.218 142.934C297.619 144.581 295.179 151.718 295.667 159.465L300.242 234.129C300.364 235.105 300.974 235.837 301.584 235.837Z" fill="#A5143A"/>
<g opacity="0.53">
<g opacity="0.53">
<g opacity="0.53">
<path opacity="0.53" d="M301.279 142.934C297.68 144.581 295.24 151.718 295.728 159.465L300.303 234.129C300.364 234.922 300.73 235.593 301.218 235.776V142.934H301.279Z" fill="#F4A15D"/>
</g>
<g opacity="0.53">
<path opacity="0.53" d="M301.279 142.934H301.95C301.706 142.812 301.462 142.812 301.279 142.934Z" fill="#F4A15D"/>
</g>
</g>
</g>
<path d="M301.584 235.837C302.255 235.837 302.804 235.105 302.865 234.129L307.44 159.465C307.928 151.779 305.488 144.642 301.889 142.934C301.645 142.812 301.401 142.812 301.218 142.934C297.619 144.581 295.179 151.718 295.667 159.465L300.242 234.129C300.364 235.105 300.974 235.837 301.584 235.837Z" stroke="#601B23" stroke-width="6" stroke-miterlimit="10" stroke-linecap="round" stroke-linejoin="round"/>
<path d="M391.132 147.204C384.91 138.176 381.311 127.501 381.311 116.094C381.311 101.637 386.984 88.4 396.439 78.213C405.894 88.4 411.628 101.637 411.689 116.094C411.689 127.562 408.09 138.176 401.929 147.204H391.132Z" fill="#CF264D"/>
<path d="M391.132 147.204C384.91 138.176 381.311 127.501 381.311 116.094C381.311 101.637 386.984 88.4 396.439 78.213C405.894 88.4 411.628 101.637 411.689 116.094C411.689 127.562 408.09 138.176 401.929 147.204H391.132Z" fill="#CF264D"/>
<path opacity="0.23" d="M395.585 78.213C396.317 79.006 397.049 79.86 397.72 80.714C391.376 90.474 387.716 101.942 387.655 114.142C387.655 126.22 389.485 137.505 395.707 147.265H390.095C383.934 138.237 380.335 127.562 380.335 116.155C380.335 101.637 386.069 88.4 395.585 78.213Z" fill="#F4A15D"/>
<path opacity="0.32" d="M395.585 78.213C395.829 78.457 396.073 78.762 396.317 79.067C389.18 89.62 385.093 102.003 385.032 115.301C385.032 126.83 388.143 137.688 393.572 147.265H390.095C383.934 138.237 380.335 127.562 380.335 116.155C380.335 101.637 386.069 88.4 395.585 78.213Z" fill="#F4A15D"/>
<path opacity="0.37" d="M411.689 116.094C411.689 101.637 405.955 88.461 396.439 78.213C395.707 79.006 394.975 79.86 394.304 80.714C400.648 90.474 404.308 101.942 404.369 114.142C404.369 126.22 400.831 137.505 394.609 147.265H401.929C408.09 138.176 411.689 127.501 411.689 116.094Z" fill="#A5143A"/>
<path opacity="0.72" d="M411.689 116.094C411.689 101.637 405.955 88.461 396.439 78.213C396.195 78.457 395.951 78.762 395.707 79.067C402.844 89.62 406.931 102.003 406.992 115.301C406.992 126.83 403.881 137.688 398.452 147.265H401.929C408.09 138.176 411.689 127.501 411.689 116.094Z" fill="#A5143A"/>
<path opacity="0.37" d="M396.439 78.213C395.707 79.006 394.975 79.86 394.304 80.714C400.648 90.474 404.308 101.942 404.369 114.142C404.369 126.22 400.831 137.505 394.609 147.265H401.929C408.09 138.237 411.689 127.562 411.689 116.155C411.689 101.637 405.955 88.4 396.439 78.213Z" fill="#A5143A"/>
<path opacity="0.72" d="M396.439 78.213C396.195 78.457 395.951 78.762 395.707 79.067C402.844 89.62 406.931 102.003 406.992 115.301C406.992 126.83 403.881 137.688 398.452 147.265H401.929C408.09 138.237 411.689 127.562 411.689 116.155C411.689 101.637 405.955 88.4 396.439 78.213Z" fill="#A5143A"/>
<path d="M404.552 89.193C402.295 85.228 399.611 81.568 396.5 78.152C393.389 81.507 390.705 85.228 388.448 89.193H404.552Z" fill="#601B23"/>
<path d="M391.132 147.204C384.91 138.176 381.311 127.501 381.311 116.094C381.311 101.637 386.984 88.4 396.439 78.213C405.894 88.4 411.628 101.637 411.689 116.094C411.689 127.562 408.09 138.176 401.929 147.204H391.132Z" stroke="#601B23" stroke-width="6" stroke-miterlimit="10" stroke-linecap="round" stroke-linejoin="round"/>
<path d="M386.496 139.152H406.565" stroke="#601B23" stroke-width="4" stroke-miterlimit="10" stroke-linecap="round" stroke-linejoin="round"/>
<path opacity="0.41" d="M282.796 21.9711C282.796 21.9711 286.944 15.4441 301.035 4.46411C294.508 13.3091 293.227 18.8601 292.8 19.2871C288.652 20.0801 282.796 21.9711 282.796 21.9711Z" fill="white"/>
</svg>
