<svg id="b4249c1d-11fa-4c91-bc02-02a991e70afc" data-name="Layer 1" xmlns="http://www.w3.org/2000/svg" xmlns:xlink="http://www.w3.org/1999/xlink" viewBox="0 0 1080 1080"><defs><linearGradient id="aa3a0ac2-f14a-448d-9977-ab0b04af1b1b" x1="82.72" y1="232.19" x2="378.02" y2="527.49" gradientUnits="userSpaceOnUse"><stop offset="0" stop-color="#a4acf8"/><stop offset="1" stop-color="#818cf8"/></linearGradient><linearGradient id="f303ba16-8167-4de5-b283-f052ab0091c6" x1="371.79" y1="518.97" x2="706.6" y2="853.79" xlink:href="#aa3a0ac2-f14a-448d-9977-ab0b04af1b1b"/><linearGradient id="f501d200-2404-4cb6-9945-101921375827" x1="683.33" y1="207.43" x2="1018.14" y2="542.25" xlink:href="#aa3a0ac2-f14a-448d-9977-ab0b04af1b1b"/></defs><title>samiptter_logo4</title><path d="M403,217.69l75.12,75.12L298.49,472.38a300.25,300.25,0,0,0-87.83,222.48L68.22,552.42c-84.36-84.27-84.36-221.37,0-305.65l29-29.08A199,199,0,0,1,117.39,200q6.75-5.34,13.74-9.92a201.61,201.61,0,0,1,18.4-10.85,205,205,0,0,1,19.16-8.9c3.22-1.27,6.53-2.55,9.83-3.73a202.82,202.82,0,0,1,24.34-6.87c1.27-.34,2.54-.59,3.81-.85a216.94,216.94,0,0,1,86.82,0c1.27.26,2.54.51,3.82.85a203.19,203.19,0,0,1,24.33,6.87c3.31,1.18,6.61,2.46,9.83,3.73a206.35,206.35,0,0,1,19.17,8.9A202.82,202.82,0,0,1,369,190.05q7,4.57,13.74,9.92A197.94,197.94,0,0,1,403,217.69Z" style="fill:url(#aa3a0ac2-f14a-448d-9977-ab0b04af1b1b)"/><path d="M785.83,690.11a213.69,213.69,0,0,1-38.49,122.94l-54.09,54.09c-84.28,84.28-221.46,84.28-305.73,0l-29.08-29.08c-84.28-84.28-84.28-221.37,0-305.73L538,352.75,722.5,537.24A214.94,214.94,0,0,1,785.83,690.11Z" style="fill:url(#f303ba16-8167-4de5-b283-f052ab0091c6)"/><path d="M358.44,532.33,538,352.75,722.5,537.24a215.92,215.92,0,0,1,24.84,275.81l-54.09,54.09c-84.28,84.28-221.46,84.28-305.73,0l-29.08-29.08C274.16,753.78,274.16,616.69,358.44,532.33Z" style="fill:url(#f303ba16-8167-4de5-b283-f052ab0091c6)"/><path d="M1076.05,394.72a214.85,214.85,0,0,1-63.25,152.87L870.62,689.77A298.94,298.94,0,0,0,782.44,477.3L598,292.81l80-79.95c84.27-84.28,221.46-84.28,305.73,0l29.08,29A215,215,0,0,1,1076.05,394.72Z" style="fill:url(#f501d200-2404-4cb6-9945-101921375827)"/></svg>